<?xml version="1.0" encoding="utf-8"?>
<!-- Generator: Adobe Illustrator 19.1.1, SVG Export Plug-In . SVG Version: 6.00 Build 0)  -->
<svg version="1.1" id="Layer_1" xmlns="http://www.w3.org/2000/svg" xmlns:xlink="http://www.w3.org/1999/xlink" x="0px" y="0px"
	 viewBox="0 0 318.5 124.9" style="enable-background:new 0 0 318.5 124.9;" xml:space="preserve">
<style type="text/css">
	.st0{fill:#3D3834;stroke:#000000;stroke-miterlimit:10;}
	.st1{fill:none;stroke:#3D3834;stroke-width:2;stroke-miterlimit:10;}
	.st2{fill:#FFFFFF;stroke:#C6203C;stroke-width:2;stroke-miterlimit:10;}
	.st3{fill:#C6203C;}
	.st4{fill:#3D3834;}
	.st5{fill:#809F3D;}
</style>
<g>
	<path class="st0" d="M4.3,42.5C3.8,46.9,3.4,51.3,3,55.9C2.6,60.5,2.1,65,1.6,69.4H0L6.9,3.6h1.4l6.8,65.8h-1.4l-2.8-26.9H4.3z
		 M10.8,40.9c-0.3-2.7-0.6-5.3-0.8-7.7c-0.2-2.4-0.5-4.8-0.7-7.1C9,23.8,8.7,21.4,8.5,19c-0.3-2.4-0.5-5.1-0.9-7.9
		c-0.5,5.1-1,10-1.5,14.9c-0.5,4.8-1,9.8-1.6,15H10.8z"/>
	<path class="st0" d="M36.2,67.2c-1.5,1.5-3.2,2.2-5.3,2.2c-2.1,0-3.9-0.7-5.3-2.2c-1.5-1.5-2.2-3.3-2.2-5.5V3.9h1.5v57.8
		c0,1.7,0.6,3.2,1.8,4.4c1.2,1.2,2.6,1.8,4.2,1.8c1.7,0,3.1-0.6,4.2-1.8c1.2-1.2,1.8-2.7,1.8-4.4V3.9h1.5v57.8
		C38.4,63.9,37.7,65.7,36.2,67.2z"/>
	<path class="st0" d="M61.6,67.2c-1.5,1.5-3.2,2.2-5.3,2.2c-2.1,0-3.9-0.7-5.3-2.2c-1.5-1.5-2.2-3.3-2.2-5.5V11.3
		c0-2.2,0.7-4,2.2-5.5c1.5-1.5,3.2-2.2,5.3-2.2c2.1,0,3.9,0.7,5.3,2.2c1.5,1.5,2.2,3.3,2.2,5.5v5.1h-1.5v-5.1c0-1.7-0.6-3.2-1.8-4.4
		c-1.2-1.2-2.6-1.8-4.2-1.8c-1.7,0-3.1,0.6-4.2,1.8c-1.2,1.2-1.8,2.7-1.8,4.4v50.3c0,1.7,0.6,3.2,1.8,4.4c1.2,1.2,2.6,1.8,4.2,1.8
		c1.7,0,3.1-0.6,4.2-1.8c1.2-1.2,1.8-2.7,1.8-4.4V36.9h-6.4v-1.4h7.9v26.1C63.8,63.9,63,65.7,61.6,67.2z"/>
	<path class="st0" d="M74.1,69.5v-66h1.4l8.4,60c1.4-10,2.8-20,4.2-30c1.4-10,2.8-20,4.2-29.9h1.3v66h-1.4V14.4
		c-1.3,9.3-2.6,18.4-3.9,27.5c-1.3,9.1-2.6,18.2-3.9,27.4h-1.3l-7.6-55v55.2H74.1z"/>
	<path class="st0" d="M104.1,69.4V3.6h14.3v1.5h-12.8V35h10.9v1.4h-10.9v31.4h12.8v1.5H104.1z"/>
	<path class="st0" d="M128.7,69.4V3.6h1.4l12.1,58.3V3.6h1.4v65.8h-1.3l-12.1-58.2v58.2H128.7z"/>
	<path class="st0" d="M158.4,69.4V5.1H152V3.6h14.4v1.5H160v64.3H158.4z"/>
	<path class="st0" d="M174.7,69.4V3.6H189v1.5h-12.8V35H187v1.4h-10.9v31.4H189v1.5H174.7z"/>
	<path class="st0" d="M199.3,3.6h6.9c2.1,0,3.9,0.8,5.3,2.3c1.5,1.5,2.2,3.3,2.2,5.4v50.3c0,2.2-0.7,4-2.2,5.5
		c-1.5,1.5-3.2,2.2-5.3,2.2h-6.9V3.6z M206.1,67.8c1.7,0,3.1-0.6,4.3-1.9c1.1-1.2,1.7-2.7,1.7-4.3V11.3c0-1.7-0.6-3.1-1.7-4.3
		s-2.6-1.9-4.3-1.9h-5.3v62.7H206.1z"/>
</g>
<line class="st1" x1="269.2" y1="30.8" x2="269.2" y2="2.7"/>
<path class="st2" d="M315.8,76.5c0,25.7-20.8,46.5-46.5,46.5c-25.7,0-46.5-20.8-46.5-46.5c0-25.7,20.8-46.5,46.5-46.5
	C294.9,30,315.8,50.8,315.8,76.5z"/>
<path class="st3" d="M269.2,123c-25.7,0-46.5-20.8-46.5-46.5c0-25.7,20.8-46.5,46.5-46.5"/>
<g>
	<path class="st4" d="M283.8,75.8c0,0-4.5,5.3-10.1,0"/>
	<path class="st4" d="M283.8,75.8c0,0-4.5-5.3-10.1,0"/>
</g>
<g>
	<path class="st4" d="M275.7,62.2c0,0,3.7,5.8-3,9.6"/>
	<path class="st4" d="M275.7,62.2c0,0-6.4,2.7-3,9.6"/>
</g>
<g>
	<path class="st4" d="M275.5,88.7c0,0,3.7-5.8-3-9.6"/>
	<path class="st4" d="M275.5,88.7c0,0-6.4-2.7-3-9.6"/>
</g>
<g>
	<path class="st5" d="M304.2,4.9c0,0-3.1,26.6-32.5,21.5"/>
	<path class="st5" d="M304.2,4.9c0,0-25.8-7.5-32.5,21.5"/>
</g>
<g>
	<path class="st4" d="M1.2,122.3V73.6h1.1v47.6h9.5v1.1H1.2z"/>
	<path class="st4" d="M31.1,122.3V73.6h10.6v1.1h-9.5v22.2h8v1.1h-8v23.2h9.5v1.1H31.1z"/>
	<path class="st4" d="M62.6,102.4c-0.3,3.2-0.6,6.6-1,9.9c-0.3,3.4-0.6,6.7-1,9.9h-1.2l5.1-48.7h1.1l5,48.7h-1.1l-2-19.9H62.6z
		 M67.4,101.3c-0.2-2-0.4-3.9-0.6-5.7c-0.2-1.8-0.3-3.5-0.5-5.3c-0.2-1.7-0.4-3.5-0.6-5.3c-0.2-1.8-0.4-3.8-0.6-5.8
		c-0.4,3.8-0.8,7.4-1.1,11c-0.4,3.6-0.8,7.3-1.2,11.1H67.4z"/>
	<path class="st4" d="M88.5,122.3V73.6h5.1c0.8,0,1.5,0.2,2.2,0.5c0.7,0.3,1.3,0.7,1.8,1.2c0.5,0.5,0.9,1.1,1.2,1.8
		c0.3,0.7,0.5,1.4,0.5,2.2v13c0,1.1-0.3,2.1-0.9,3c-0.6,0.9-1.4,1.6-2.3,2.1c0.9,0.5,1.7,1.2,2.3,2.1c0.6,0.9,0.9,1.9,0.9,3v19.7H98
		v-19.7c0-1.3-0.4-2.4-1.3-3.2c-0.9-0.9-1.9-1.3-3.1-1.3h-4v24.3H88.5z M93.5,96.9c1.2,0,2.3-0.4,3.1-1.3c0.9-0.9,1.3-2,1.3-3.3v-13
		c0-1.3-0.4-2.4-1.3-3.2c-0.9-0.9-1.9-1.3-3.1-1.3h-4v22.2H93.5z"/>
	<path class="st4" d="M118.4,122.3V73.6h1.1l9,43.1V73.6h1.1v48.7h-1l-9-43v43H118.4z"/>
	<path class="st4" d="M148.8,122.3V73.5h1.1v48.8H148.8z"/>
	<path class="st4" d="M169.2,122.3V73.6h1.1l9,43.1V73.6h1.1v48.7h-1l-9-43v43H169.2z"/>
	<path class="st4" d="M209.1,120.7c-1.1,1.1-2.4,1.6-4,1.6c-1.6,0-2.9-0.5-4-1.6c-1.1-1.1-1.6-2.4-1.6-4.1V79.3c0-1.6,0.5-3,1.6-4.1
		c1.1-1.1,2.4-1.7,4-1.7c1.6,0,2.9,0.6,4,1.7c1.1,1.1,1.6,2.5,1.6,4.1v3.7h-1.1v-3.7c0-1.3-0.4-2.4-1.3-3.2
		c-0.9-0.9-1.9-1.3-3.1-1.3c-1.2,0-2.3,0.4-3.1,1.3c-0.9,0.9-1.3,2-1.3,3.2v37.3c0,1.3,0.4,2.4,1.3,3.2c0.9,0.9,1.9,1.3,3.1,1.3
		c1.2,0,2.3-0.4,3.1-1.3c0.9-0.9,1.3-2,1.3-3.2V98.3h-4.7v-1.1h5.9v19.3C210.7,118.2,210.2,119.6,209.1,120.7z"/>
</g>
</svg>
